<?xml version="1.0" standalone="no"?>
<!DOCTYPE svg PUBLIC "-//W3C//DTD SVG 20010904//EN"
 "http://www.w3.org/TR/2001/REC-SVG-20010904/DTD/svg10.dtd">
<svg version="1.0" xmlns="http://www.w3.org/2000/svg"
 width="500.000000pt" height="500.000000pt" viewBox="0 0 500.000000 500.000000"
 preserveAspectRatio="xMidYMid meet">

<g transform="translate(0.000000,500.000000) scale(0.100000,-0.100000)"
fill="#000000" stroke="none">
<path d="M1860 2935 l0 -635 165 0 165 0 0 635 0 635 -165 0 -165 0 0 -635z"/>
<path d="M2800 2935 l0 -635 165 0 165 0 0 635 0 635 -165 0 -165 0 0 -635z"/>
<path d="M2330 2800 l0 -500 165 0 165 0 0 500 0 500 -165 0 -165 0 0 -500z"/>
<path d="M1626 1970 c-95 -29 -114 -151 -32 -201 35 -21 93 -25 131 -7 21 9
25 18 25 55 0 39 -2 43 -25 43 -21 0 -25 -5 -25 -30 0 -27 -3 -30 -33 -30 -62
0 -90 68 -45 110 24 22 49 25 79 9 20 -10 49 2 49 22 0 23 -81 42 -124 29z"/>
<path d="M3285 1961 c-105 -47 -79 -195 36 -208 149 -17 194 177 51 217 -46
12 -39 13 -87 -9z m95 -51 c58 -58 -21 -148 -82 -93 -37 34 -8 113 42 113 11
0 29 -9 40 -20z"/>
<path d="M1819 1868 c-24 -56 -45 -106 -47 -110 -2 -4 10 -8 26 -8 22 0 33 6
37 20 9 30 97 29 116 -1 10 -14 22 -20 40 -17 l26 3 -46 108 c-44 104 -46 107
-76 107 -31 0 -33 -4 -76 -102z m101 -25 c0 -14 -46 -18 -53 -5 -2 4 3 23 11
42 l15 35 13 -30 c7 -16 13 -36 14 -42z"/>
<path d="M2040 1860 l0 -110 75 0 c73 0 75 1 75 25 0 23 -4 25 -45 25 l-45 0
0 85 0 85 -30 0 -30 0 0 -110z"/>
<path d="M2220 1860 l0 -110 75 0 c73 0 75 1 75 25 0 23 -4 25 -45 25 l-45 0
0 85 0 85 -30 0 -30 0 0 -110z"/>
<path d="M2400 1860 l0 -110 30 0 30 0 0 110 0 110 -30 0 -30 0 0 -110z"/>
<path d="M2500 1860 l0 -110 25 0 c23 0 24 3 27 68 l3 67 50 -67 c40 -54 55
-67 78 -68 l27 0 0 110 0 110 -30 0 c-29 0 -29 -1 -32 -62 l-3 -63 -45 62
c-36 50 -50 62 -72 63 l-28 0 0 -110z"/>
<path d="M2779 1868 c-24 -56 -45 -106 -47 -110 -2 -4 10 -8 26 -8 22 0 33 6
37 20 9 30 97 29 116 -1 10 -14 22 -20 40 -17 l26 3 -46 108 c-44 104 -46 107
-76 107 -31 0 -33 -4 -76 -102z m101 -25 c0 -14 -46 -18 -53 -5 -2 4 3 23 11
42 l15 35 13 -30 c7 -16 13 -36 14 -42z"/>
<path d="M3000 1860 l0 -110 30 0 c27 0 30 3 30 30 0 25 4 30 24 30 17 0 27
-9 36 -30 10 -25 18 -30 47 -30 l34 0 -22 31 c-21 30 -21 33 -5 59 22 38 20
86 -4 110 -16 16 -33 20 -95 20 l-75 0 0 -110z m131 54 c19 -23 -1 -48 -40
-52 -30 -3 -31 -2 -31 32 0 33 2 36 29 36 16 0 34 -7 42 -16z"/>
<path d="M1320 1505 l0 -46 38 3 c36 3 37 4 37 43 0 39 -1 40 -37 43 l-38 3 0
-46z m54 26 c3 -5 -1 -12 -10 -15 -22 -9 -24 -8 -24 9 0 16 25 21 34 6z m6
-41 c0 -5 -9 -10 -20 -10 -11 0 -20 5 -20 10 0 6 9 10 20 10 11 0 20 -4 20
-10z"/>
<path d="M1430 1505 c0 -25 5 -45 10 -45 6 0 10 20 10 45 0 25 -4 45 -10 45
-5 0 -10 -20 -10 -45z"/>
<path d="M1493 1539 c11 -6 17 -22 17 -44 0 -19 5 -35 10 -35 6 0 10 18 10 39
0 29 5 41 18 44 9 3 -3 5 -28 6 -35 0 -41 -2 -27 -10z"/>
<path d="M1593 1543 c-16 -6 -17 -55 -1 -71 14 -14 54 -16 63 -3 3 5 -7 11
-22 13 -20 2 -29 9 -31 26 -3 22 4 26 41 23 9 -1 17 3 17 8 0 11 -44 14 -67 4z"/>
<path d="M1690 1530 c-6 -12 -8 -30 -5 -40 7 -24 52 -37 74 -23 20 13 26 50
11 69 -19 21 -67 18 -80 -6z m68 -24 c-4 -25 -43 -34 -51 -12 -4 9 1 22 9 30
20 20 46 9 42 -18z"/>
<path d="M1810 1505 c0 -33 4 -45 15 -45 11 0 15 12 15 45 0 33 -4 45 -15 45
-11 0 -15 -12 -15 -45z"/>
<path d="M1870 1505 c0 -25 5 -45 10 -45 6 0 10 12 10 28 l1 27 22 -27 c13
-16 26 -28 30 -28 4 0 7 20 7 45 0 25 -4 45 -10 45 -5 0 -10 -10 -10 -22 l0
-21 -23 21 c-13 12 -26 22 -30 22 -4 0 -7 -20 -7 -45z"/>
<path d="M2045 1539 c-4 -6 -4 -13 -1 -16 3 -3 1 -12 -5 -19 -20 -24 -2 -45
36 -42 29 2 35 6 35 25 0 16 -4 21 -16 16 -14 -5 -15 -3 -6 14 6 11 8 23 5 27
-10 10 -41 7 -48 -5z m35 -3 c0 -3 -4 -8 -10 -11 -5 -3 -10 -1 -10 4 0 6 5 11
10 11 6 0 10 -2 10 -4z m-9 -49 c-1 -12 -15 -9 -19 4 -3 6 1 10 8 8 6 -3 11
-8 11 -12z"/>
<path d="M2200 1534 c-10 -11 -11 -23 -4 -42 8 -22 16 -27 42 -27 17 0 32 5
32 10 -1 6 -12 9 -25 7 -29 -4 -43 21 -25 43 8 10 21 13 38 8 17 -4 23 -2 18
6 -10 16 -61 14 -76 -5z"/>
<path d="M2300 1506 c0 -34 4 -46 15 -46 8 0 15 7 15 17 0 15 1 15 18 0 27
-24 29 -22 28 26 -1 41 -2 42 -38 45 l-38 3 0 -45z m57 11 c-6 -20 -27 -19
-27 2 0 14 5 19 15 14 9 -3 14 -10 12 -16z"/>
<path d="M2410 1542 c0 -5 7 -17 15 -28 8 -10 15 -27 15 -36 0 -22 20 -24 20
-3 0 9 7 29 15 45 16 32 3 42 -14 13 -10 -17 -12 -17 -25 0 -14 18 -26 22 -26
9z"/>
<path d="M2520 1505 c0 -25 5 -45 10 -45 6 0 10 7 10 15 0 9 9 15 24 15 28 0
42 26 25 46 -6 8 -24 14 -40 14 -28 0 -29 -2 -29 -45z m45 15 c0 -7 -6 -15
-12 -17 -8 -3 -13 4 -13 17 0 13 5 20 13 18 6 -3 12 -11 12 -18z"/>
<path d="M2623 1543 c12 -3 17 -15 17 -44 0 -21 5 -39 10 -39 6 0 10 16 10 35
0 22 6 38 18 44 13 8 7 10 -28 10 -25 -1 -37 -3 -27 -6z"/>
<path d="M2720 1530 c-6 -12 -8 -30 -5 -40 7 -24 52 -37 74 -23 20 13 26 50
11 69 -19 21 -67 18 -80 -6z m68 -24 c-4 -25 -43 -34 -51 -12 -8 20 19 47 39
39 8 -3 14 -15 12 -27z"/>
<path d="M2853 1543 c-16 -6 -17 -55 -1 -71 14 -14 54 -16 63 -3 3 5 -7 11
-22 13 -20 2 -29 9 -31 26 -3 22 4 26 41 23 9 -1 17 3 17 8 0 11 -44 14 -67 4z"/>
<path d="M2950 1516 c0 -39 19 -59 52 -54 19 2 23 10 26 46 2 25 -1 42 -7 42
-6 0 -11 -16 -11 -36 0 -28 -3 -35 -17 -32 -12 2 -19 14 -21 36 -4 42 -22 41
-22 -2z"/>
<path d="M3070 1505 c0 -25 5 -45 10 -45 6 0 10 7 10 15 0 8 4 15 9 15 5 0 11
-7 15 -15 7 -18 30 -20 23 -2 -2 6 0 20 5 30 13 25 -7 47 -43 47 -28 0 -29 -2
-29 -45z m45 15 c0 -7 -6 -15 -12 -17 -8 -3 -13 4 -13 17 0 13 5 20 13 18 6
-3 12 -11 12 -18z"/>
<path d="M3180 1505 c0 -25 5 -45 10 -45 6 0 10 7 10 15 0 8 4 15 9 15 5 0 11
-7 15 -15 7 -18 30 -20 23 -2 -2 6 0 20 5 30 13 25 -7 47 -43 47 -28 0 -29 -2
-29 -45z m45 15 c0 -7 -6 -15 -12 -17 -8 -3 -13 4 -13 17 0 13 5 20 13 18 6
-3 12 -11 12 -18z"/>
<path d="M3290 1505 c0 -45 0 -45 35 -45 19 0 35 5 35 10 0 6 -11 10 -25 10
-14 0 -25 5 -25 10 0 6 9 10 20 10 11 0 20 5 20 10 0 6 -9 10 -20 10 -30 0
-24 18 8 23 22 3 20 4 -10 6 l-38 1 0 -45z"/>
<path d="M3390 1505 c0 -25 5 -45 10 -45 6 0 10 12 10 26 l0 27 21 -27 c29
-37 39 -32 39 19 0 25 -4 45 -10 45 -5 0 -10 -12 -10 -27 l-1 -28 -20 28 c-29
38 -39 34 -39 -18z"/>
<path d="M3510 1534 c-10 -11 -11 -23 -4 -42 8 -22 16 -27 42 -27 17 0 32 5
32 10 -1 6 -12 9 -25 7 -29 -4 -43 21 -25 43 8 10 21 13 38 8 17 -4 23 -2 18
6 -10 16 -61 14 -76 -5z"/>
<path d="M3610 1543 c0 -5 7 -17 15 -27 8 -11 15 -28 15 -38 0 -10 5 -18 10
-18 6 0 10 8 10 18 0 10 7 28 16 40 20 29 8 45 -12 17 -14 -19 -16 -19 -25 -2
-10 17 -29 24 -29 10z"/>
</g>
</svg>
